<svg xmlns="http://www.w3.org/2000/svg" viewBox="0 -0.5 32 32" shape-rendering="crispEdges">
<metadata>Made with Pixels to Svg https://codepen.io/shshaw/pen/XbxvNj</metadata>
<path stroke="#3b2027" d="M3 0h26M2 1h1M29 1h1M2 2h1M29 2h1M2 3h1M6 3h20M29 3h1M2 4h1M5 4h1M26 4h1M29 4h1M2 5h1M5 5h1M26 5h1M29 5h1M2 6h1M5 6h1M26 6h1M29 6h1M2 7h1M5 7h1M26 7h1M29 7h1M2 8h1M5 8h1M26 8h1M29 8h1M2 9h1M5 9h1M26 9h1M29 9h1M2 10h1M5 10h1M26 10h1M29 10h1M2 11h1M5 11h1M26 11h1M29 11h1M2 12h1M5 12h1M26 12h1M29 12h1M2 13h1M5 13h1M26 13h1M29 13h1M2 14h1M5 14h1M26 14h1M29 14h1M2 15h1M5 15h1M26 15h1M29 15h1M2 16h1M5 16h1M26 16h1M29 16h1M2 17h1M5 17h1M26 17h1M29 17h1M2 18h1M5 18h1M26 18h1M29 18h1M2 19h1M5 19h1M26 19h1M29 19h1M2 20h1M5 20h1M26 20h1M29 20h1M2 21h1M6 21h1M25 21h1M29 21h1M3 22h1M7 22h1M24 22h1M28 22h1M4 23h1M8 23h1M23 23h1M27 23h1M5 24h1M9 24h1M22 24h1M26 24h1M6 25h1M10 25h1M21 25h1M25 25h1M7 26h1M11 26h1M20 26h1M24 26h1M8 27h1M12 27h1M19 27h1M23 27h1M9 28h1M13 28h6M22 28h1M10 29h1M21 29h1M11 30h1M20 30h1M12 31h8" />
<path stroke="#f0b541" d="M3 1h1M7 1h1M9 1h1M11 1h1M13 1h1M18 1h1M20 1h1M22 1h1M24 1h1M28 1h1M7 2h1M9 2h1M11 2h1M13 2h1M18 2h1M20 2h1M22 2h1M24 2h1M5 3h1M26 3h1M3 5h2M27 5h2M3 7h2M27 7h2M3 10h2M27 10h2M3 11h2M27 11h2M3 14h2M27 14h2M3 15h2M27 15h2M3 18h2M27 18h2M3 20h2M27 20h2M4 21h1M27 21h1M4 22h1M6 22h1M25 22h1M27 22h1M6 23h1M25 23h1M6 24h1M25 24h1M9 25h1M22 25h1M9 26h1M22 26h1M9 27h1M11 27h1M20 27h1M22 27h1M11 28h1M20 28h1M11 29h1M14 29h1M17 29h1M20 29h1M14 30h1M17 30h1" />
<path stroke="#ffee83" d="M4 1h3M8 1h1M10 1h1M21 1h1M23 1h1M25 1h3M3 2h4M8 2h1M10 2h1M21 2h1M23 2h1M25 2h4M3 3h2M27 3h2M3 4h2M27 4h2M3 6h2M27 6h2M3 8h2M27 8h2M3 9h2M27 9h2M3 12h2M27 12h2M3 13h2M27 13h2M3 16h2M27 16h2M3 17h2M27 17h2M3 19h2M27 19h2M5 21h1M26 21h1M5 22h1M26 22h1M5 23h1M7 23h1M24 23h1M26 23h1M7 24h2M23 24h2M7 25h2M23 25h2M8 26h1M23 26h1" />
<path stroke="#cf752b" d="M12 1h1M14 1h4M19 1h1M12 2h1M14 2h4M19 2h1M3 21h1M28 21h1M10 26h1M21 26h1M10 27h1M21 27h1M10 28h1M12 28h1M19 28h1M21 28h1M12 29h2M15 29h2M18 29h2M12 30h2M15 30h2M18 30h2" />
<path stroke="#3b7d4f" d="M6 4h1M13 10h1M11 13h1M6 20h1M12 21h1M13 22h1M13 27h1" />
<path stroke="#63ab3f" d="M7 4h9M6 5h10M6 6h8M15 6h1M6 7h7M14 7h2M6 8h7M6 9h4M11 9h3M6 10h4M11 10h2M6 11h4M12 11h1M6 12h5M6 13h5M6 14h5M6 15h3M10 15h1M6 16h3M6 17h4M6 18h5M6 19h5M7 20h3M7 21h3M11 21h1M8 22h2M11 22h2M9 23h7M10 24h6M11 25h5M12 26h4M14 27h2" />
<path stroke="#df3e23" d="M16 4h9M16 5h10M16 6h10M16 7h10M19 8h7M21 9h5M22 10h4M23 11h3M23 12h3M24 13h2M24 14h2M24 15h2M24 16h2M24 17h2M23 18h3M23 19h3M22 20h3M21 21h4M19 22h5M16 23h7M16 24h6M16 25h5M16 26h4M16 27h2" />
<path stroke="#b4202a" d="M25 4h1M25 20h1M18 27h1" />
<path stroke="#622461" d="M14 6h1M13 7h1M13 8h2M11 11h1M15 11h1M11 12h1M13 12h1M10 16h1M10 17h1M12 19h1M11 20h1M10 22h1" />
<path stroke="#3b1443" d="M15 8h1M14 9h1M14 10h1M13 11h2M12 12h1M15 12h1M12 13h1M11 14h1M11 15h1M11 16h1M11 17h1M11 18h1M11 19h1M12 20h1M13 21h1M14 22h2" />
<path stroke="#ffd541" d="M16 8h3M19 9h2M16 10h3M21 10h1M16 11h4M22 11h1M16 12h5M22 12h1M18 13h4M23 13h1M16 14h2M19 14h3M23 14h1M16 15h2M19 15h3M23 15h1M16 16h2M19 16h3M23 16h1M18 17h4M23 17h1M16 18h5M22 18h1M16 19h4M22 19h1M16 20h3M21 20h1M19 21h2M16 22h3" />
<path stroke="#93388f" d="M10 9h1M10 10h1M15 10h1M10 11h1M14 12h1M15 13h1M12 14h1M15 14h1M9 15h1M14 15h1M9 16h1M13 16h1M13 17h1M12 18h1M10 20h1M13 20h1M10 21h1M14 21h1" />
<path stroke="#ca52c9" d="M15 9h1M13 13h2M13 14h2M12 15h2M15 15h1M12 16h1M14 16h2M12 17h1M14 17h2M13 18h3M13 19h3M14 20h2M15 21h1" />
<path stroke="#fa6a0a" d="M16 9h3M19 10h2M21 11h1M22 13h1M22 14h1M22 15h1M22 16h1M22 17h1M21 19h1M19 20h2M16 21h3" />
<path stroke="#f9a31b" d="M20 11h1M21 12h1M16 13h2M18 14h1M18 15h1M18 16h1M16 17h2M21 18h1M20 19h1" />
</svg>