<svg xmlns="http://www.w3.org/2000/svg" viewBox="0 -0.5 32 32" shape-rendering="crispEdges">
<metadata>Made with Pixels to Svg https://codepen.io/shshaw/pen/XbxvNj</metadata>
<path stroke="#1a1932" d="M4 0h25M3 1h1M29 1h1M3 2h1M29 2h1M3 3h1M7 3h19M29 3h1M3 4h1M6 4h1M26 4h1M29 4h1M3 5h1M6 5h1M26 5h1M29 5h1M3 6h1M6 6h1M26 6h1M29 6h1M3 7h1M6 7h1M26 7h1M29 7h1M3 8h1M6 8h1M26 8h1M29 8h1M3 9h1M6 9h1M26 9h1M29 9h1M3 10h1M6 10h1M26 10h1M29 10h1M3 11h1M6 11h1M26 11h1M29 11h1M3 12h1M6 12h1M26 12h1M29 12h1M3 13h1M6 13h1M26 13h1M29 13h1M3 14h1M6 14h1M26 14h1M29 14h1M3 15h1M6 15h1M26 15h1M29 15h1M3 16h1M6 16h1M26 16h1M29 16h1M3 17h1M6 17h1M26 17h1M29 17h1M3 18h1M6 18h1M26 18h1M29 18h1M3 19h1M6 19h1M26 19h1M29 19h1M3 20h1M6 20h1M26 20h1M29 20h1M3 21h1M7 21h1M25 21h1M29 21h1M4 22h1M8 22h1M24 22h1M28 22h1M5 23h1M9 23h1M23 23h1M27 23h1M6 24h1M10 24h1M22 24h1M26 24h1M7 25h1M11 25h1M21 25h1M25 25h1M8 26h1M12 26h1M20 26h1M24 26h1M9 27h1M13 27h1M19 27h1M23 27h1M10 28h1M14 28h5M22 28h1M11 29h1M21 29h1M12 30h1M20 30h1M13 31h7" />
<path stroke="#92a1b9" d="M4 1h1M8 1h1M10 1h2M21 1h2M24 1h1M28 1h1M8 2h1M10 2h2M21 2h2M24 2h1M6 3h1M26 3h1M4 6h2M27 6h2M4 14h2M27 14h2M4 15h2M27 15h2M4 18h2M27 18h2M5 21h2M26 21h2M5 22h1M7 22h1M25 22h1M27 22h1M8 24h2M23 24h2M8 25h1M10 25h1M22 25h1M24 25h1M11 27h2M20 27h2M11 28h1M13 28h1M19 28h1M21 28h1" />
<path stroke="#ffffff" d="M5 1h2M13 1h1M15 1h3M19 1h1M26 1h2M4 2h3M13 2h1M15 2h3M19 2h1M26 2h3M4 3h2M27 3h2M4 8h2M27 8h2M4 9h2M27 9h2M4 11h2M17 11h1M27 11h2M4 12h2M27 12h2M15 29h3M15 30h3" />
<path stroke="#c7cfdd" d="M7 1h1M9 1h1M12 1h1M14 1h1M18 1h1M20 1h1M23 1h1M25 1h1M7 2h1M9 2h1M12 2h1M14 2h1M18 2h1M20 2h1M23 2h1M25 2h1M4 4h2M27 4h2M4 5h2M27 5h2M4 7h2M27 7h2M4 10h2M27 10h2M4 13h2M27 13h2M4 16h2M27 16h2M4 17h2M27 17h2M4 19h2M27 19h2M4 20h2M27 20h2M4 21h1M28 21h1M6 22h1M26 22h1M6 23h3M24 23h3M7 24h1M25 24h1M9 25h1M23 25h1M9 26h3M21 26h3M10 27h1M22 27h1M12 28h1M20 28h1M12 29h3M18 29h3M13 30h2M18 30h2" />
<path stroke="#00396d" d="M7 4h4M12 4h1M20 4h1M22 4h4M7 5h2M24 5h2M7 6h1M25 6h1M7 7h1M25 7h1M7 9h1M15 9h3M25 9h1M14 10h1M18 10h1M13 11h1M19 11h1M13 12h1M19 12h1M13 13h1M19 13h1M14 14h1M18 14h1M15 15h3M7 16h1M25 16h1M7 18h1M9 18h1M23 18h1M25 18h1M7 19h1M25 19h1M7 20h1M9 20h1M11 20h1M21 20h1M23 20h1M25 20h1M8 21h2M13 21h1M19 21h1M23 21h2M9 22h1M11 22h1M21 22h1M23 22h1M10 23h2M13 23h1M16 23h1M19 23h1M21 23h2M11 24h1M13 24h1M19 24h1M21 24h1M12 25h2M16 25h1M19 25h2M13 26h2M16 26h1M18 26h2M14 27h5" />
<path stroke="#0069aa" d="M11 4h1M13 4h7M21 4h1M9 5h15M8 6h8M17 6h8M8 7h3M12 7h4M17 7h4M22 7h3M7 8h5M13 8h3M17 8h3M21 8h5M8 9h5M14 9h1M18 9h1M20 9h5M7 10h7M19 10h7M7 11h6M20 11h6M7 12h3M23 12h3M7 13h6M20 13h6M7 14h7M19 14h7M7 15h6M14 15h1M18 15h1M20 15h6M8 16h4M13 16h3M17 16h3M21 16h4M7 17h4M12 17h4M17 17h4M22 17h4M8 18h1M10 18h6M17 18h6M24 18h1M8 19h17M8 20h1M10 20h1M12 20h9M22 20h1M24 20h1M10 21h3M14 21h5M20 21h3M10 22h1M12 22h9M22 22h1M12 23h1M14 23h2M17 23h2M20 23h1M12 24h1M14 24h5M20 24h1M14 25h2M17 25h2M15 26h1M17 26h1" />
<path stroke="#0098dc" d="M16 6h1M11 7h1M21 7h1M17 10h1M18 11h1M10 12h1M22 12h1M14 13h1M15 14h1M11 17h1M21 17h1M16 18h1" />
<path stroke="#00cdf9" d="M16 7h1M12 8h1M20 8h1M15 10h2M14 11h1M11 12h1M14 12h1M18 12h1M21 12h1M18 13h1M16 14h2M12 16h1M20 16h1M16 17h1" />
<path stroke="#0df1ff" d="M16 8h1M13 9h1M19 9h1M15 11h1M12 12h1M15 12h1M20 12h1M15 13h3M13 15h1M19 15h1M16 16h1" />
<path stroke="#94fdff" d="M16 11h1M16 12h2" />
</svg>