<svg xmlns="http://www.w3.org/2000/svg" viewBox="0 -0.5 32 32" shape-rendering="crispEdges">
<metadata>Made with Pixels to Svg https://codepen.io/shshaw/pen/XbxvNj</metadata>
<path stroke="#21181b" d="M12 0h7M9 1h3M19 1h3M7 2h2M22 2h2M6 3h1M10 3h11M24 3h1M5 4h1M8 4h2M21 4h2M25 4h1M4 5h1M7 5h1M23 5h1M26 5h1M3 6h1M6 6h1M24 6h1M27 6h1M2 7h1M5 7h1M25 7h1M28 7h1M2 8h1M4 8h1M26 8h1M28 8h1M1 9h1M4 9h1M26 9h1M29 9h1M1 10h1M3 10h1M27 10h1M29 10h1M1 11h1M3 11h1M27 11h1M29 11h1M0 12h1M3 12h1M27 12h1M30 12h1M0 13h1M3 13h1M27 13h1M30 13h1M0 14h1M3 14h1M27 14h1M30 14h1M0 15h1M3 15h1M27 15h1M30 15h1M0 16h1M3 16h1M27 16h1M30 16h1M0 17h1M3 17h1M27 17h1M30 17h1M0 18h1M3 18h1M27 18h1M30 18h1M1 19h1M3 19h1M27 19h1M29 19h1M1 20h1M3 20h1M27 20h1M29 20h1M1 21h1M4 21h1M26 21h1M29 21h1M2 22h1M4 22h1M26 22h1M28 22h1M2 23h1M5 23h1M25 23h1M28 23h1M3 24h1M6 24h1M24 24h1M27 24h1M4 25h1M7 25h1M23 25h1M26 25h1M5 26h1M8 26h2M21 26h2M25 26h1M6 27h1M10 27h11M24 27h1M7 28h2M22 28h2M9 29h3M19 29h3M12 30h7" />
<path stroke="#f0b541" d="M12 1h7M10 2h3M14 2h1M17 2h1M8 3h2M21 3h1M6 4h2M5 5h2M4 6h2M4 7h1M3 8h1M3 9h1M27 9h1M2 10h1M2 11h1M28 11h1M2 12h1M28 12h2M1 13h2M16 13h1M28 13h2M1 14h2M13 14h2M28 14h2M1 15h2M15 15h1M28 15h2M1 16h2M16 16h2M28 16h2M1 17h2M14 17h1M28 17h2M1 18h2M28 18h1M2 19h1M28 19h1M28 20h1M3 21h1M27 21h1M27 22h1M26 23h1M25 24h2M24 25h2M23 26h2M9 27h1M21 27h2M13 28h1M16 28h1M18 28h3M12 29h7" />
<path stroke="#cf752b" d="M9 2h1M7 3h1M3 7h1M2 9h1M1 12h1M15 13h1M13 15h1M17 15h1M15 17h1M29 18h1M28 21h1M27 23h1M23 27h1M21 28h1" />
<path stroke="#ffee83" d="M13 2h1M15 2h2M18 2h4M22 3h2M23 4h2M24 5h2M25 6h2M26 7h2M27 8h1M28 9h1M28 10h1M15 14h2M14 15h1M16 15h1M14 16h2M2 20h1M2 21h1M3 22h1M3 23h2M4 24h2M5 25h2M6 26h2M7 27h2M9 28h4M14 28h2M17 28h1" />
<path stroke="#00396d" d="M10 4h7M8 5h3M15 5h6M7 6h2M17 6h2M20 6h3M7 7h8M17 7h3M21 7h4M6 8h4M14 8h2M18 8h2M22 8h4M6 9h2M15 9h2M19 9h2M23 9h1M25 9h1M5 10h2M10 10h3M19 10h2M23 10h1M25 10h2M5 11h1M8 11h4M19 11h2M23 11h1M26 11h1M5 12h4M20 12h1M23 12h1M26 12h1M5 13h3M23 13h1M26 13h1M4 14h3M9 14h1M22 14h1M26 14h1M4 15h2M8 15h2M21 15h2M25 15h2M4 16h1M8 16h1M21 16h1M24 16h3M4 17h1M7 17h2M23 17h3M4 18h1M7 18h1M10 18h1M22 18h4M4 19h1M7 19h1M10 19h2M19 19h5M25 19h1M4 20h2M7 20h1M10 20h2M18 20h4M24 20h2M5 21h1M7 21h1M11 21h1M14 21h2M23 21h2M5 22h4M11 22h2M15 22h2M21 22h4M6 23h4M11 23h3M16 23h8M8 24h3M12 24h3M22 24h2M10 25h6M20 25h3M14 26h7" />
<path stroke="#0069aa" d="M17 4h4M14 5h1M21 5h2M16 6h1M23 6h1M6 7h1M5 8h1M13 8h1M5 9h1M18 9h1M22 9h1M4 10h1M9 10h1M13 10h1M16 10h1M4 11h1M7 11h1M12 11h3M16 11h2M4 12h1M9 12h1M14 12h2M17 12h1M19 12h1M4 13h1M11 13h3M17 13h1M19 13h2M22 13h1M10 14h2M18 14h2M23 14h1M25 14h1M12 15h1M18 15h1M5 16h1M7 16h1M11 16h2M19 16h2M10 17h2M13 17h1M17 17h3M26 17h1M11 18h1M13 18h1M15 18h2M21 18h1M26 18h1M13 19h2M16 19h3M26 19h1M14 20h1M17 20h1M26 20h1M8 21h1M10 21h1M12 21h1M25 21h1M17 22h1M25 22h1M24 23h1M7 24h1M8 25h2M16 25h1M10 26h4" />
<path stroke="#0098dc" d="M11 5h3M9 6h3M15 6h1M19 6h1M16 7h1M20 7h1M10 8h3M16 8h2M21 8h1M8 9h1M11 9h1M24 9h1M7 10h1M22 10h1M24 10h1M6 11h1M21 11h2M24 11h2M16 12h1M22 12h1M25 12h1M8 13h1M14 13h1M25 13h1M8 14h1M12 14h1M17 14h1M7 15h1M24 15h1M13 16h1M18 16h1M22 16h2M5 17h1M16 17h1M22 17h1M5 18h2M8 18h1M14 18h1M5 19h2M8 19h2M24 19h1M6 20h1M8 20h1M23 20h1M6 21h1M19 21h1M22 21h1M9 22h1M13 22h2M18 22h3M10 23h1M15 23h1M11 24h1M18 24h4M17 25h3" />
<path stroke="#00cdf9" d="M12 6h3M15 7h1M20 8h1M9 9h2M12 9h3M17 9h1M21 9h1M8 10h1M14 10h2M17 10h2M21 10h1M15 11h1M18 11h1M10 12h4M18 12h1M21 12h1M24 12h1M9 13h2M18 13h1M21 13h1M24 13h1M7 14h1M20 14h2M24 14h1M6 15h1M10 15h2M19 15h2M23 15h1M6 16h1M9 16h2M6 17h1M9 17h1M12 17h1M20 17h2M9 18h1M12 18h1M17 18h4M12 19h1M15 19h1M9 20h1M12 20h2M15 20h2M22 20h1M9 21h1M13 21h1M16 21h3M20 21h2M10 22h1M14 23h1M15 24h3" />
</svg>